<svg width="106.086853" height="30.719971" viewBox="0 0 106.087 30.72" fill="none" xmlns="http://www.w3.org/2000/svg" xmlns:xlink="http://www.w3.org/1999/xlink">
	<desc>
			Created with Pixso.
	</desc>
	<defs/>
	<path d="M37.8884 0L31.8884 0L31.8884 30.24L37.8884 30.24L37.8884 0ZM41.7991 4.68005C41.7991 3.71997 42.1324 2.90662 42.7991 2.23999C43.4924 1.54663 44.3191 1.19995 45.2791 1.19995C46.2391 1.19995 47.0524 1.54663 47.7191 2.23999C48.4124 2.90662 48.759 3.71997 48.759 4.68005C48.759 5.64001 48.4124 6.46667 47.7191 7.16003C47.0524 7.82666 46.2391 8.16003 45.2791 8.16003C44.3191 8.16003 43.4924 7.82666 42.7991 7.16003C42.1324 6.46667 41.7991 5.64001 41.7991 4.68005ZM74.4163 4.68005C74.4163 3.71997 74.7496 2.90662 75.4163 2.23999C76.1096 1.54663 76.9363 1.19995 77.8962 1.19995C78.8563 1.19995 79.6696 1.54663 80.3362 2.23999C81.0296 2.90662 81.3762 3.71997 81.3762 4.68005C81.3762 5.64001 81.0296 6.46667 80.3362 7.16003C79.6696 7.82666 78.8563 8.16003 77.8962 8.16003C76.9363 8.16003 76.1096 7.82666 75.4163 7.16003C74.7496 6.46667 74.4163 5.64001 74.4163 4.68005ZM12.24 1.92004L17.4 1.92004L29.72 30.24L22.68 30.24L20.24 24.24L9.23999 24.24L6.88 30.24L0 30.24L12.24 1.92004ZM14.64 10.16L11.2 18.96L18.12 18.96L14.64 10.16ZM85.3269 16.3199Q84.4869 18.2 84.4869 20.52Q84.4869 22.84 85.3269 24.72C85.8868 25.9734 86.6469 27.0533 87.6069 27.96C88.5935 28.84 89.7402 29.52 91.0469 30C92.3802 30.48 93.7935 30.72 95.2869 30.72C96.7802 30.72 98.1802 30.48 99.4869 30C100.82 29.52 101.967 28.84 102.927 27.96C103.914 27.0533 104.687 25.9734 105.247 24.72Q106.087 22.84 106.087 20.52Q106.087 18.2 105.247 16.3199C104.687 15.0667 103.914 14 102.927 13.12Q102.799 12.9996 102.668 12.8843Q101.31 11.6963 99.4869 11.04C98.1802 10.5601 96.7802 10.3199 95.2869 10.3199C93.7935 10.3199 92.3802 10.5601 91.0469 11.04C89.7402 11.52 88.5935 12.2134 87.6069 13.12C86.6469 14 85.8868 15.0667 85.3269 16.3199ZM42.2791 10.8L48.2791 10.8L48.2791 30.24L42.2791 30.24L42.2791 10.8ZM57.0297 10.8L50.5497 10.8L58.5897 30.24L64.9497 30.24L72.6297 10.8L66.5897 10.8L62.0297 24L61.9497 24L57.0297 10.8ZM74.8962 10.8L80.8962 10.8L80.8962 30.24L74.8962 30.24L74.8962 10.8ZM91.7269 24.08C90.9002 23.1733 90.4869 21.9867 90.4869 20.52C90.4869 19.0533 90.9002 17.8667 91.7269 16.96C92.5802 16.0533 93.7668 15.6 95.2869 15.6C96.8069 15.6 97.9802 16.0533 98.8069 16.96C99.6602 17.8667 100.087 19.0533 100.087 20.52Q100.087 22.2545 99.2913 23.4668Q99.0778 23.7922 98.8069 24.08C97.9802 24.9867 96.8069 25.4399 95.2869 25.4399C93.7668 25.4399 92.5802 24.9867 91.7269 24.08Z" fill-rule="evenodd" fill="#FFFFFF"/>
</svg>
