<svg width="80.846375" height="80.846375" viewBox="0 0 80.8464 80.8464" fill="none" xmlns="http://www.w3.org/2000/svg" xmlns:xlink="http://www.w3.org/1999/xlink">
	<desc>
			Created with Pixso.
	</desc>
	<defs>
		<clipPath id="clip1_31">
			<rect width="80.846390" height="80.846390" fill="white"/>
		</clipPath>
	</defs>
	<g clip-path="url(#clip1_31)">
		<path d="M40.4232 0C18.1325 0 0 18.1342 0 40.4232C0 62.7122 18.1325 80.8464 40.4232 80.8464C62.7139 80.8464 80.8464 62.7122 80.8464 40.4232C80.8464 18.1342 62.7139 0 40.4232 0ZM40.4232 77.4778C19.9911 77.4778 3.36856 60.8552 3.36856 40.4232C3.36856 19.9911 19.9911 3.36856 40.4232 3.36856C60.8552 3.36856 77.4778 19.9911 77.4778 40.4232C77.4778 60.8552 60.8552 77.4778 40.4232 77.4778Z" fill-rule="nonzero" fill="#FFFFFF"/>
		<path d="M56.4935 39.007L32.9134 23.8483C32.3969 23.5111 31.7291 23.493 31.1962 23.7857C30.6533 24.0818 30.3177 24.6477 30.3177 25.2645L30.3177 55.5819C30.3177 56.1987 30.6533 56.7646 31.1962 57.0607C31.4461 57.1973 31.7258 57.2662 32.0021 57.2662C32.3179 57.2662 32.637 57.1774 32.9134 56.9981L56.4935 41.8394C56.9738 41.5303 57.2666 40.9956 57.2666 40.4232C57.2666 39.8508 56.9738 39.3163 56.4935 39.007ZM33.6863 52.4962L33.6863 28.3503L52.467 40.4232L33.6863 52.4962Z" fill-rule="nonzero" fill="#FFFFFF"/>
	</g>
</svg>
